# https://github.com/mikedh/trimesh
v 0.04485781 -0.50228089 -0.49025002
v 0.25662937 0.43293166 -0.49025002
v -0.41927295 0.27895820 -0.49025002
v -0.33172982 0.37809181 -0.49024866
v -0.41451514 -0.29044409 -0.49021123
v -0.48787061 -0.11215944 -0.49024690
v 0.36539305 0.34790025 -0.49022685
v 0.44251518 0.23630607 -0.49024104
v 0.41757744 -0.27781891 -0.49025002
v 0.22790159 -0.45326108 -0.49024855
v 0.12880659 -0.48753337 0.00000000
v 0.33653823 -0.37454285 -0.23706931
v 0.42333381 -0.27077217 0.00000000
v 0.49039511 -0.12130689 -0.49001534
v 0.50234580 0.02727270 -0.49009842
v 0.48991697 0.11295711 -0.49019618
v 0.10236298 0.49771907 -0.49024310
v -0.47088506 0.17801086 -0.49023465
v -0.49765423 0.05945473 -0.49024123
v -0.21407490 -0.45625491 -0.49022822
v -0.17345508 -0.46936269 0.04811135
v 0.18719776 0.06954703 0.48325282
v -0.05881202 0.09624239 0.50975000
v -0.16050456 -0.21006521 0.44187962
v -0.13718734 0.27647919 0.41298551
v -0.42745746 0.07697881 0.25392444
v -0.32984384 -0.19374588 0.33208032
v -0.25958605 0.00983069 0.44084201
v -0.14113176 0.45185132 0.16111398
v 0.44781538 -0.12752047 0.17187442
v 0.20439295 -0.10314038 0.47182108
v -0.48056234 -0.11045807 0.12238500
v -0.48021196 0.10765799 0.08827843
v -0.38152949 0.26805316 0.16864879
v -0.07922225 0.49765506 -0.49023831
v -0.27872518 0.40372061 0.16629915
v -0.31558767 0.19967707 0.34763741
v 0.02505852 0.36953734 0.35401623
v 0.28621047 0.42237350 0.14484981
v 0.29975504 0.23326118 0.33622795
v 0.45359798 0.20168652 0.12612277
v 0.47955521 0.06106298 0.12342880
v 0.07901532 0.24472664 0.44935036
v 0.22760681 -0.42716134 0.12325888
v 0.00961706 -0.49734132 0.05394979
v 0.16304914 -0.40882979 0.25455118
v -0.01243637 -0.44201436 0.24396067
v 0.09422652 -0.30027579 0.40553426
v 0.01760680 -0.14063826 0.50347285
v -0.16679863 -0.37819017 0.29446478
v -0.40498931 0.29443097 0.00805570
v -0.22956448 0.45106441 -0.49023948
v 0.05170527 0.47899130 0.12711125
v 0.36695868 -0.00834164 0.33973212
v 0.37306239 -0.26832743 0.19879917
v 0.27494509 -0.25382517 0.35334770
v -0.08709708 -0.49893218 -0.48983556
v -0.31363589 -0.39628370 -0.49015486
v -0.29861423 -0.36621967 0.16502484
v -0.39704028 -0.26329291 0.14644270
vn 0.07781296 -0.71271308 -0.69712640
vn 0.35334231 0.61782321 -0.70245548
vn -0.58934721 0.40467148 -0.69922161
vn -0.47195904 0.53657374 -0.69953076
vn -0.61011197 -0.41269245 -0.67634926
vn -0.70585815 -0.16304569 -0.68933329
vn 0.52545618 0.49214574 -0.69403773
vn 0.62853154 0.34081966 -0.69913523
vn 0.58405389 -0.41599100 -0.69701689
vn 0.33930507 -0.64494772 -0.68477333
vn 0.27612293 -0.95496738 0.10859756
vn 0.65102782 -0.75884677 0.01773004
vn 0.84370948 -0.52443376 0.11455808
vn 0.71189718 -0.17905948 -0.67907298
vn 0.72332048 0.01994617 -0.69022434
vn 0.69369044 0.17744762 -0.69807301
vn 0.13543471 0.72261698 -0.67785112
vn -0.67340891 0.24777038 -0.69651294
vn -0.71732739 0.05993660 -0.69415346
vn -0.29964773 -0.64834187 -0.69990289
vn -0.36127058 -0.91822204 0.16233254
vn 0.35846289 0.14717015 0.92187055
vn -0.13228961 0.15221207 0.97945441
vn -0.29847028 -0.39148587 0.87043340
vn -0.27889158 0.52861391 0.80173987
vn -0.82590404 0.12590212 0.54957362
vn -0.64896677 -0.35459803 0.67312878
vn -0.49208043 0.00861157 0.87050715
vn -0.21450067 0.92105514 0.32503368
vn 0.90564770 -0.22869224 0.35707437
vn 0.39721012 -0.18861253 0.89813665
vn -0.93633014 -0.22037834 0.27334824
vn -0.95545920 0.22106281 0.19552228
vn -0.78860774 0.49022773 0.37118002
vn -0.11017271 0.72427985 -0.68064724
vn -0.51266161 0.78518750 0.34735955
vn -0.59897153 0.37505118 0.70750952
vn 0.05568465 0.73854484 0.67190084
vn 0.51505318 0.79457326 0.32151758
vn 0.57619810 0.43181373 0.69392553
vn 0.87918369 0.37612136 0.29252140
vn 0.95988646 0.04615191 0.27656463
vn 0.17494934 0.46824968 0.86610332
vn 0.48838561 -0.83704542 0.24664643
vn 0.00626722 -0.98328101 0.18198673
vn 0.31772561 -0.80260825 0.50484694
vn -0.03495611 -0.86432179 0.50172294
vn 0.13333297 -0.58503588 0.79997209
vn -0.00624603 -0.24699419 0.96899683
vn -0.31626134 -0.72723761 0.60918324
vn -0.81362846 0.57357902 0.09495180
vn -0.31546704 0.65923085 -0.68256518
vn 0.06066028 0.96485436 0.25568807
vn 0.73728888 -0.00575003 0.67555314
vn 0.73730304 -0.53960698 0.40645852
vn 0.55504909 -0.47263917 0.68449451
vn -0.12330401 -0.71767688 -0.68537290
vn -0.45763127 -0.56812179 -0.68396729
vn -0.60124572 -0.73153605 0.32149429
vn -0.78831158 -0.54818292 0.27939280
f 18//18 3//3 19//19
f 8//8 9//9 2//2
f 14//14 9//9 15//15
f 6//6 3//3 1//1
f 19//19 3//3 6//6
f 1//1 9//9 10//10
f 10//10 11//11 1//1
f 55//55 30//30 56//56
f 56//56 30//30 54//54
f 2//2 3//3 4//4
f 15//15 9//9 16//16
f 9//9 8//8 16//16
f 5//5 58//58 59//59
f 1//1 57//57 20//20
f 58//58 5//5 20//20
f 20//20 6//6 1//1
f 20//20 5//5 6//6
f 12//12 10//10 9//9
f 21//21 20//20 57//57
f 59//59 58//58 21//21
f 58//58 20//20 21//21
f 48//48 49//49 24//24
f 46//46 56//56 48//48
f 48//48 47//47 46//46
f 55//55 56//56 46//46
f 29//29 36//36 25//25
f 53//53 35//35 29//29
f 34//34 36//36 51//51
f 3//3 18//18 51//51
f 51//51 4//4 3//3
f 36//36 4//4 51//51
f 53//53 29//29 38//38
f 38//38 29//29 25//25
f 41//41 16//16 8//8
f 41//41 40//40 54//54
f 31//31 56//56 54//54
f 48//48 56//56 31//31
f 31//31 49//49 48//48
f 34//34 26//26 37//37
f 37//37 36//36 34//34
f 25//25 36//36 37//37
f 27//27 26//26 32//32
f 19//19 6//6 32//32
f 6//6 5//5 32//32
f 2//2 4//4 17//17
f 17//17 4//4 35//35
f 17//17 35//35 53//53
f 35//35 4//4 52//52
f 52//52 4//4 36//36
f 52//52 29//29 35//35
f 36//36 29//29 52//52
f 13//13 12//12 9//9
f 13//13 30//30 55//55
f 9//9 14//14 13//13
f 14//14 30//30 13//13
f 47//47 21//21 45//45
f 11//11 46//46 45//45
f 45//45 46//46 47//47
f 45//45 21//21 57//57
f 1//1 11//11 45//45
f 45//45 57//57 1//1
f 50//50 47//47 48//48
f 48//48 24//24 50//50
f 59//59 21//21 50//50
f 50//50 21//21 47//47
f 50//50 27//27 59//59
f 50//50 24//24 27//27
f 28//28 49//49 23//23
f 28//28 24//24 49//49
f 23//23 25//25 28//28
f 25//25 37//37 28//28
f 27//27 24//24 28//28
f 28//28 26//26 27//27
f 28//28 37//37 26//26
f 55//55 46//46 44//44
f 44//44 46//46 11//11
f 44//44 13//13 55//55
f 12//12 13//13 44//44
f 11//11 10//10 44//44
f 10//10 12//12 44//44
f 33//33 26//26 34//34
f 34//34 51//51 33//33
f 33//33 32//32 26//26
f 19//19 32//32 33//33
f 33//33 18//18 19//19
f 33//33 51//51 18//18
f 53//53 38//38 39//39
f 39//39 38//38 40//40
f 40//40 41//41 39//39
f 39//39 17//17 53//53
f 2//2 17//17 39//39
f 40//40 38//38 43//43
f 43//43 25//25 23//23
f 43//43 38//38 25//25
f 54//54 30//30 42//42
f 42//42 41//41 54//54
f 42//42 14//14 15//15
f 42//42 30//30 14//14
f 15//15 16//16 42//42
f 16//16 41//41 42//42
f 60//60 5//5 59//59
f 60//60 32//32 5//5
f 59//59 27//27 60//60
f 27//27 32//32 60//60
f 7//7 41//41 8//8
f 7//7 39//39 41//41
f 7//7 8//8 2//2
f 2//2 39//39 7//7
f 40//40 43//43 22//22
f 54//54 40//40 22//22
f 22//22 31//31 54//54
f 22//22 43//43 23//23
f 23//23 49//49 22//22
f 49//49 31//31 22//22
f 9//9 3//3 2//2
f 1//1 3//3 9//9

