# https://github.com/mikedh/trimesh
v 0.50000000 0.40555489 -0.05307185
v 0.50000000 0.49814733 0.18156160
v 0.49998809 -0.40237440 -0.06402855
v 0.45127551 -0.40185119 -0.09411874
v -0.24489796 -0.40185119 -0.12290324
v 0.24489796 -0.40185119 -0.12290324
v 0.35928572 -0.40185119 -0.11452347
v -0.49999278 -0.40185119 -0.06402664
v -0.45127551 -0.40185119 -0.09411874
v -0.32372449 -0.40185119 -0.11948150
v -0.39484694 -0.40185119 -0.10956544
v 0.06122449 -0.48240661 0.06459403
v -0.32372449 -0.50185102 0.11515195
v -0.49999791 -0.50185102 0.15343786
v 0.37339286 -0.50185102 0.12397166
v 0.49999955 -0.50185110 0.16473297
v 0.48750000 0.40555489 -0.07464975
v -0.32372449 0.40555489 -0.11948150
v -0.39484694 0.40555489 -0.10956544
v 0.42379435 0.40575286 -0.10167760
v 0.32372449 0.40555489 -0.11948150
v -0.49999052 0.40555489 -0.06568649
v -0.45127551 0.40555489 -0.09411874
v 0.24489087 0.40556141 -0.12290292
v 0.32372449 0.49814733 0.11515195
v 0.48750000 0.49814733 0.15998370
v -0.24489796 0.40557315 -0.12290148
v -0.32372449 0.49814733 0.11515195
v -0.49995279 0.49814733 0.15342304
v -0.50000000 0.49814733 0.57261736
v -0.50000000 -0.40185119 0.80725082
v -0.50000000 0.40555489 0.80725082
v 0.23107579 -0.40408472 0.87709676
v 0.49995576 -0.40185119 0.81823709
v -0.24489796 -0.40185119 0.87708220
v -0.35928572 -0.40185119 0.86870244
v -0.45127551 -0.40185119 0.84829771
v -0.48750000 -0.40185119 0.82882872
v 0.32372449 -0.40185119 0.87366047
v 0.39484694 -0.40185119 0.86374441
v 0.45127551 -0.40185119 0.84829771
v 0.00000000 -0.50185102 0.64244875
v 0.35928572 -0.50185102 0.63406898
v 0.49999915 -0.50185102 0.59195066
v -0.37339286 -0.50185102 0.63020731
v -0.49999942 -0.50185193 0.58944403
v 0.32372449 0.40555489 0.87366047
v -0.48750000 0.40555489 0.82882872
v -0.45127551 0.40555489 0.84829771
v 0.49986386 0.40570571 0.82203600
v 0.42306123 0.40555489 0.85602106
v -0.35928572 0.40555489 0.86870244
v -0.24489796 0.40555489 0.87708220
v 0.24489796 0.40555489 0.87708220
v -0.24489796 0.49814733 0.64244875
v -0.40528062 0.49814733 0.62386662
v -0.48750000 0.49814733 0.59419526
v 0.24489796 0.49814733 0.64244875
v 0.37339286 0.49814733 0.63020731
v 0.49999957 0.49814808 0.58946676
vn 0.95905926 0.28184268 -0.02774965
vn 0.80924836 0.58746439 -0.00163888
vn 0.90990719 -0.40984681 -0.06398822
vn 0.81931411 -0.54477740 -0.17872319
vn -0.11916528 -0.90199483 -0.41497585
vn 0.19567896 -0.88825843 -0.41557996
vn 0.59528095 -0.73500866 -0.32465807
vn -0.91550793 -0.39713429 -0.06426187
vn -0.83102238 -0.53197855 -0.16248270
vn -0.43954376 -0.81628871 -0.37479863
vn -0.69670023 -0.66584906 -0.26693411
vn 0.00991913 -0.99836491 -0.05629493
vn -0.06085836 -0.99751741 -0.03542987
vn -0.80594094 -0.59191060 -0.01005157
vn 0.10046217 -0.99430172 -0.03565742
vn 0.80740263 -0.58995035 -0.00771899
vn 0.87884716 0.46663748 -0.09938370
vn -0.43663034 0.81916741 -0.37191224
vn -0.69295948 0.67041640 -0.26523386
vn 0.76953850 0.60097376 -0.21596537
vn 0.49689114 0.78914761 -0.36103358
vn -0.90835957 0.41290894 -0.06625030
vn -0.82417308 0.54210417 -0.16389573
vn 0.11684683 0.90422798 -0.41075367
vn 0.07169529 0.99685668 -0.03371275
vn 0.47246887 0.88095734 -0.02621699
vn -0.11688509 0.90424073 -0.41071471
vn -0.05569174 0.99789838 -0.03312490
vn -0.80599855 0.59184425 -0.00931277
vn -0.80924752 0.58746555 0.00163838
vn -0.96714710 -0.25261493 0.02849886
vn -0.95934740 0.28083150 0.02803984
vn 0.11393505 -0.90571214 0.40829442
vn 0.91297145 -0.40302386 0.06367808
vn -0.20224086 -0.88640272 0.41639988
vn -0.59623294 -0.73363206 0.32602191
vn -0.81055678 -0.55545473 0.18565490
vn -0.89373955 -0.44004978 0.08709652
vn 0.44769231 -0.80995942 0.37886320
vn 0.69692130 -0.66569523 0.26674063
vn 0.82955119 -0.53434039 0.16225035
vn -0.00251103 -0.99951736 0.03096366
vn 0.09260006 -0.99506192 0.03573516
vn 0.80716751 -0.59026585 0.00817501
vn -0.10099981 -0.99424481 0.03572541
vn -0.80740246 -0.58995053 0.00772213
vn 0.49511112 0.79042169 0.36069174
vn -0.88883218 0.45006712 0.08612170
vn -0.80719842 0.56070468 0.18450197
vn 0.89367320 0.44157961 0.07972243
vn 0.77421674 0.59592694 0.21321239
vn -0.59349110 0.73675513 0.32397560
vn -0.19669955 0.88917443 0.41313209
vn 0.11768570 0.90395309 0.41111907
vn -0.02580089 0.99918330 0.03109747
vn -0.11729757 0.99260148 0.03136226
vn -0.47409049 0.88011901 0.02507443
vn 0.02055950 0.99932087 0.03057960
vn 0.10208469 0.99427637 0.03151527
vn 0.80750255 0.58982006 0.00720605
f 14//14 46//46 30//30
f 30//30 46//46 31//31
f 50//50 34//34 60//60
f 22//22 14//14 30//30
f 8//8 14//14 22//22
f 30//30 60//60 29//29
f 29//29 22//22 30//30
f 23//23 22//22 29//29
f 46//46 37//37 38//38
f 38//38 31//31 46//46
f 41//41 34//34 50//50
f 16//16 3//3 1//1
f 1//1 2//2 16//16
f 26//26 60//60 2//2
f 26//26 25//25 60//60
f 28//28 29//29 60//60
f 60//60 25//25 28//28
f 46//46 14//14 13//13
f 15//15 16//16 46//46
f 46//46 13//13 15//15
f 46//46 16//16 44//44
f 34//34 41//41 44//44
f 44//44 60//60 34//34
f 2//2 60//60 44//44
f 44//44 16//16 2//2
f 33//33 39//39 54//54
f 56//56 52//52 55//55
f 56//56 55//55 60//60
f 3//3 16//16 4//4
f 16//16 15//15 4//4
f 25//25 26//26 20//20
f 8//8 22//22 9//9
f 9//9 22//22 23//23
f 9//9 14//14 8//8
f 27//27 28//28 25//25
f 25//25 24//24 27//27
f 5//5 13//13 10//10
f 5//5 24//24 6//6
f 5//5 27//27 24//24
f 6//6 15//15 12//12
f 12//12 15//15 13//13
f 12//12 5//5 6//6
f 13//13 5//5 12//12
f 33//33 35//35 42//42
f 53//53 35//35 33//33
f 33//33 54//54 53//53
f 55//55 52//52 53//53
f 47//47 39//39 40//40
f 47//47 54//54 39//39
f 59//59 60//60 58//58
f 60//60 55//55 58//58
f 58//58 47//47 59//59
f 54//54 47//47 58//58
f 57//57 60//60 30//30
f 57//57 56//56 60//60
f 52//52 56//56 49//49
f 56//56 57//57 49//49
f 49//49 57//57 48//48
f 30//30 31//31 32//32
f 21//21 24//24 25//25
f 25//25 20//20 21//21
f 6//6 24//24 21//21
f 17//17 20//20 26//26
f 1//1 3//3 17//17
f 3//3 4//4 17//17
f 4//4 20//20 17//17
f 10//10 13//13 11//11
f 11//11 13//13 14//14
f 14//14 9//9 11//11
f 46//46 44//44 43//43
f 43//43 42//42 46//46
f 40//40 39//39 43//43
f 43//43 39//39 33//33
f 33//33 42//42 43//43
f 43//43 41//41 40//40
f 43//43 44//44 41//41
f 46//46 42//42 45//45
f 45//45 36//36 37//37
f 45//45 37//37 46//46
f 35//35 36//36 45//45
f 45//45 42//42 35//35
f 40//40 41//41 51//51
f 51//51 47//47 40//40
f 51//51 41//41 50//50
f 59//59 47//47 51//51
f 50//50 60//60 51//51
f 51//51 60//60 59//59
f 7//7 20//20 4//4
f 7//7 21//21 20//20
f 6//6 21//21 7//7
f 7//7 15//15 6//6
f 7//7 4//4 15//15
f 18//18 5//5 10//10
f 27//27 5//5 18//18
f 28//28 27//27 18//18
f 28//28 18//18 19//19
f 23//23 29//29 19//19
f 29//29 28//28 19//19
f 53//53 52//52 36//36
f 53//53 36//36 35//35
f 58//58 53//53 54//54
f 55//55 53//53 58//58
f 36//36 52//52 49//49
f 37//37 36//36 49//49
f 49//49 38//38 37//37
f 49//49 48//48 38//38
f 48//48 57//57 32//32
f 32//32 57//57 30//30
f 38//38 48//48 32//32
f 31//31 38//38 32//32
f 17//17 26//26 2//2
f 17//17 2//2 1//1
f 19//19 11//11 9//9
f 19//19 9//9 23//23
f 10//10 11//11 19//19
f 19//19 18//18 10//10

