# https://github.com/mikedh/trimesh
v 0.49999993 -0.40185185 0.78874740
v -0.49999993 -0.40185185 0.78874740
v 0.48749993 -0.40185185 0.81762453
v -0.24489792 -0.40185185 0.88220089
v 0.22772476 -0.40388734 0.88224862
v 0.32372444 -0.40185185 0.87762166
v 0.39484688 -0.40185185 0.86435127
v 0.45127545 -0.40185185 0.84367936
v -0.48749993 -0.40185185 0.81762453
v -0.45127545 -0.40185185 0.84367936
v -0.39484688 -0.40185185 0.86435127
v -0.32372444 -0.40185185 0.87762166
v 0.30209179 -0.50185185 0.56258997
v 0.46938769 -0.50185185 0.51664824
v 0.49999993 -0.50185185 0.47474370
v -0.24489792 -0.50185185 0.56819718
v -0.40528056 -0.50185185 0.54332921
v -0.50000005 -0.50185186 0.49610257
v -0.21428568 -0.50185185 -0.11775139
v -0.34693873 -0.50185185 -0.11775139
v 0.44561218 -0.50185185 0.04377361
v 0.18255099 -0.50185185 -0.07366004
v 0.37964280 -0.50185185 -0.00145787
v 0.29076527 -0.50185185 -0.04110084
v -0.07494897 -0.50185185 -0.11272359
v 0.05908162 -0.50185185 -0.09782711
v 0.49999993 -0.50185185 0.14391836
v 0.48627544 -0.50185185 0.09287407
v -0.49997666 -0.50185185 -0.07443973
v -0.45515300 -0.50185185 -0.10132227
v -0.40551015 -0.50185185 -0.11348991
v -0.45127545 0.40555555 0.84367936
v -0.39484688 0.40555555 0.86435127
v 0.32372444 0.40555555 0.87762166
v 0.39484688 0.40555555 0.86435127
v -0.49994298 0.40671500 0.80567322
v 0.49998076 0.40604563 0.80341908
v 0.45127545 0.40555555 0.84367936
v -0.32372444 0.40555555 0.87762166
v -0.24489792 0.40555555 0.88220089
v 0.24489792 0.40555555 0.88220089
v -0.24489792 0.49814815 0.56819718
v -0.40528056 0.49814815 0.54332921
v -0.49999969 0.49814815 0.48939625
v 0.24489792 0.49814815 0.56819718
v 0.35928566 0.49814815 0.55698276
v 0.49999873 0.49814815 0.50061716
v -0.21428568 0.49814815 -0.11775139
v 0.44561218 0.49814815 0.04377361
v 0.05908162 0.49814815 -0.09782711
v 0.48627544 0.49814815 0.09287407
v 0.49999993 0.49814815 0.14391836
v 0.37964280 0.49814815 -0.00145787
v 0.29076527 0.49814815 -0.04110084
v 0.18255099 0.49814815 -0.07366004
v -0.45515300 0.49814815 -0.10132227
v -0.49999292 0.49812996 -0.07380043
v -0.40551015 0.49814815 -0.11348991
v -0.34693873 0.49814815 -0.11775139
v -0.07494897 0.49814815 -0.11272359
vn 0.96286160 -0.26738428 0.03745898
vn -0.96635895 -0.25442234 0.03767838
vn 0.88996544 -0.44093361 0.11635748
vn -0.11512304 -0.84549726 0.52142216
vn 0.10323496 -0.85150648 0.51408098
vn 0.42022856 -0.76947751 0.48094939
vn 0.67717339 -0.64884716 0.34703538
vn 0.81235675 -0.53885023 0.22297294
vn -0.89012117 -0.44054815 0.11662601
vn -0.81285730 -0.53804912 0.22308328
vn -0.67708863 -0.64881227 0.34726592
vn -0.41738372 -0.77447432 0.47537391
vn 0.05661302 -0.99732495 0.04623763
vn 0.33704763 -0.94053728 0.04229083
vn 0.80912035 -0.58763066 0.00380274
vn -0.02720666 -0.99863207 0.04465193
vn -0.12998608 -0.99048504 0.04519959
vn -0.80779255 -0.58939288 0.00933953
vn 0.06172479 -0.88564297 -0.46024621
vn -0.12528735 -0.87549155 -0.46670936
vn 0.79784865 -0.59058072 -0.12104520
vn 0.59606228 -0.73345827 -0.32672423
vn 0.75891347 -0.62411979 -0.18580860
vn 0.69506297 -0.67234825 -0.25462777
vn 0.24488663 -0.85829453 -0.45095569
vn 0.44823886 -0.80116657 -0.39650228
vn 0.81724345 -0.57610485 -0.01470903
vn 0.81883117 -0.57092422 -0.05967450
vn -0.83661238 -0.54097015 -0.08620341
vn -0.72312142 -0.64225172 -0.25418130
vn -0.46414195 -0.78499511 -0.41031077
vn -0.81444096 0.53807652 0.21716257
vn -0.67372764 0.65340376 0.34518778
vn 0.41439656 0.77782685 0.47250491
vn 0.67460124 0.65248897 0.34521198
vn -0.89621293 0.43473616 0.08835641
vn 0.90475156 0.41746461 0.08454532
vn 0.81755696 0.53475279 0.21363538
vn -0.41476642 0.77787945 0.47209362
vn -0.11054715 0.84899659 0.51670506
vn 0.11055404 0.84898669 0.51671985
vn -0.02558870 0.99881015 0.04151518
vn -0.13660385 0.98972391 0.04226082
vn -0.80817610 0.58889041 0.00771137
vn 0.01540374 0.99907269 0.04020562
vn 0.09213829 0.99482677 0.04278128
vn 0.80726122 0.59010739 0.01012898
vn 0.06172479 0.88564298 -0.46024621
vn 0.79784865 0.59058072 -0.12104520
vn 0.44823886 0.80116657 -0.39650228
vn 0.81883117 0.57092422 -0.05967450
vn 0.81724346 0.57610483 -0.01470896
vn 0.75891347 0.62411979 -0.18580860
vn 0.69506296 0.67234825 -0.25462777
vn 0.59606227 0.73345828 -0.32672423
vn -0.72568392 0.63999677 -0.25256086
vn -0.83655649 0.54134009 -0.08440469
vn -0.46414195 0.78499511 -0.41031077
vn -0.12528735 0.87549155 -0.46670936
vn 0.24488663 0.85829453 -0.45095569
f 18//18 57//57 29//29
f 1//1 47//47 37//37
f 47//47 38//38 37//37
f 46//46 38//38 47//47
f 27//27 15//15 18//18
f 18//18 29//29 30//30
f 30//30 31//31 18//18
f 16//16 17//17 18//18
f 18//18 13//13 16//16
f 36//36 32//32 44//44
f 44//44 2//2 36//36
f 44//44 57//57 18//18
f 18//18 2//2 44//44
f 18//18 17//17 10//10
f 10//10 17//17 11//11
f 18//18 19//19 25//25
f 23//23 21//21 18//18
f 18//18 21//21 28//28
f 28//28 27//27 18//18
f 52//52 47//47 1//1
f 20//20 19//19 18//18
f 18//18 31//31 20//20
f 56//56 29//29 57//57
f 56//56 30//30 29//29
f 57//57 44//44 56//56
f 38//38 46//46 35//35
f 3//3 37//37 38//38
f 38//38 8//8 3//3
f 1//1 37//37 3//3
f 3//3 15//15 1//1
f 18//18 15//15 14//14
f 14//14 13//13 18//18
f 15//15 3//3 14//14
f 14//14 3//3 8//8
f 9//9 2//2 18//18
f 18//18 10//10 9//9
f 36//36 2//2 9//9
f 9//9 10//10 32//32
f 9//9 32//32 36//36
f 26//26 22//22 18//18
f 18//18 25//25 26//26
f 18//18 22//22 24//24
f 24//24 23//23 18//18
f 11//11 17//17 12//12
f 17//17 16//16 12//12
f 34//34 35//35 46//46
f 34//34 41//41 6//6
f 7//7 6//6 13//13
f 13//13 14//14 7//7
f 7//7 14//14 8//8
f 45//45 34//34 46//46
f 41//41 34//34 45//45
f 43//43 32//32 33//33
f 43//43 44//44 32//32
f 40//40 42//42 39//39
f 42//42 43//43 39//39
f 39//39 43//43 33//33
f 13//13 6//6 5//5
f 5//5 16//16 13//13
f 41//41 40//40 5//5
f 6//6 41//41 5//5
f 4//4 12//12 16//16
f 16//16 5//5 4//4
f 4//4 5//5 40//40
f 33//33 32//32 10//10
f 10//10 11//11 33//33
f 15//15 27//27 52//52
f 1//1 15//15 52//52
f 60//60 25//25 48//48
f 48//48 25//25 19//19
f 19//19 20//20 48//48
f 48//48 20//20 59//59
f 51//51 52//52 27//27
f 27//27 28//28 51//51
f 59//59 20//20 58//58
f 58//58 20//20 31//31
f 31//31 30//30 58//58
f 30//30 56//56 58//58
f 35//35 34//34 7//7
f 7//7 34//34 6//6
f 7//7 8//8 38//38
f 38//38 35//35 7//7
f 50//50 25//25 60//60
f 50//50 26//26 25//25
f 50//50 55//55 22//22
f 22//22 26//26 50//50
f 53//53 23//23 54//54
f 23//23 24//24 54//54
f 22//22 55//55 54//54
f 54//54 24//24 22//22
f 49//49 23//23 53//53
f 21//21 23//23 49//49
f 49//49 51//51 28//28
f 49//49 28//28 21//21
f 45//45 40//40 41//41
f 45//45 42//42 40//40
f 59//59 58//58 43//43
f 43//43 50//50 60//60
f 43//43 46//46 47//47
f 47//47 52//52 43//43
f 60//60 48//48 43//43
f 43//43 49//49 53//53
f 53//53 54//54 43//43
f 43//43 48//48 59//59
f 43//43 56//56 44//44
f 52//52 51//51 43//43
f 43//43 58//58 56//56
f 43//43 45//45 46//46
f 55//55 50//50 43//43
f 43//43 54//54 55//55
f 51//51 49//49 43//43
f 42//42 45//45 43//43
f 33//33 11//11 39//39
f 11//11 12//12 39//39
f 4//4 39//39 12//12
f 40//40 39//39 4//4

